<svg width="20" height="20" viewBox="0 0 20 20" fill="none" xmlns="http://www.w3.org/2000/svg"><path d="M15 4.16667H17.5" stroke="white" stroke-width="1.5" stroke-linecap="round" stroke-linejoin="round"></path><path d="M2.5 4.16667H11.6667" stroke="white" stroke-width="1.5" stroke-linecap="round" stroke-linejoin="round"></path><path d="M8.33325 9.99999H17.4999" stroke="white" stroke-width="1.5" stroke-linecap="round" stroke-linejoin="round"></path><path d="M2.5 9.99999H5" stroke="white" stroke-width="1.5" stroke-linecap="round" stroke-linejoin="round"></path><path d="M15 15.8333H17.5" stroke="white" stroke-width="1.5" stroke-linecap="round" stroke-linejoin="round"></path><path d="M2.5 15.8333H11.6667" stroke="white" stroke-width="1.5" stroke-linecap="round" stroke-linejoin="round"></path><path d="M14.5119 2.98816C15.1628 3.63903 15.1628 4.69431 14.5119 5.34518C13.8611 5.99606 12.8058 5.99606 12.1549 5.34518C11.504 4.69431 11.504 3.63903 12.1549 2.98816C12.8058 2.33728 13.8611 2.33728 14.5119 2.98816" stroke="white" stroke-width="1.5" stroke-linecap="round" stroke-linejoin="round"></path><path d="M7.84518 8.8215C8.49605 9.47237 8.49605 10.5276 7.84518 11.1785C7.19431 11.8294 6.13903 11.8294 5.48816 11.1785C4.83728 10.5276 4.83728 9.47237 5.48816 8.8215C6.13903 8.17063 7.19431 8.17063 7.84518 8.8215" stroke="white" stroke-width="1.5" stroke-linecap="round" stroke-linejoin="round"></path><path d="M14.5119 14.6548C15.1628 15.3057 15.1628 16.361 14.5119 17.0119C13.8611 17.6627 12.8058 17.6627 12.1549 17.0119C11.504 16.361 11.504 15.3057 12.1549 14.6548C12.8058 14.004 13.8611 14.004 14.5119 14.6548" stroke="white" stroke-width="1.5" stroke-linecap="round" stroke-linejoin="round"></path></svg>